<?xml version="1.0" encoding="utf-8"?>
<!-- Generator: Adobe Illustrator 16.0.0, SVG Export Plug-In . SVG Version: 6.00 Build 0)  -->
<!DOCTYPE svg PUBLIC "-//W3C//DTD SVG 1.1//EN" "http://www.w3.org/Graphics/SVG/1.1/DTD/svg11.dtd">
<svg version="1.1" id="Layer_1" xmlns="http://www.w3.org/2000/svg" xmlns:xlink="http://www.w3.org/1999/xlink" x="0px" y="0px"
	 width="2400px" height="1500px" viewBox="0 0 2400 1500" enable-background="new 0 0 2400 1500" xml:space="preserve">
<g>
	<polygon fill="#58705F" points="1200,1500 0,1500 0,0 1200,0 1479.375,358.125 1200,673.125 1528.125,1209.375 	"/>
	<polygon fill="#D49246" points="1200,1500 2400,1500 2400,0 1200,0 1494.375,328.125 1200,710.625 786.562,961.875 
		826.875,1321.875 	"/>
	<g>
		<path fill="#344859" d="M1100.047,1499.471c-127.041,0-230.594-37.278-310.656-111.837
			c-80.094-74.561-120.122-173.262-120.122-296.168c0-104.914,28.641-190.539,85.95-256.814
			c57.277-66.276,136.338-128.41,237.14-186.399c-53.846-66.276-92.163-122.519-114.946-168.796
			c-22.779-46.241-34.173-96.982-34.173-152.224c0-99.413,33.817-178.793,101.484-238.175C1012.354,29.707,1097.264,0,1199.457,0
			c99.411,0,182.579,31.422,249.566,94.236c66.956,62.843,100.448,141.866,100.448,237.138c0,80.095-22.104,148.082-66.279,204.001
			c-44.201,55.923-105.62,108.053-184.324,156.368l227.819,273.388c26.212-70.419,39.352-134.623,39.352-192.61h209.18
			c-2.781,131.189-36.598,254.741-101.482,370.723l297.01,356.228h-285.808l-145.823-178.112
			C1416.205,1440.125,1269.873,1499.471,1100.047,1499.471z M1129.045,1296.502c104.906,0,198.107-45.562,279.593-136.689
			l-292.021-358.3c-69.054,42.812-122.187,85.271-159.468,127.372c-37.275,42.135-55.914,92.875-55.914,152.227
			c0,64.915,20.71,117.016,62.131,156.367C1004.784,1276.829,1059.988,1296.502,1129.045,1296.502z M1193.24,190.54
			c-41.418,0-75.588,12.429-102.51,37.28c-26.926,24.852-40.385,57.311-40.385,97.341c0,22.103,7.57,47.637,22.78,76.632
			c15.178,28.996,28.639,51.097,40.385,66.272c11.713,15.211,33.457,41.422,65.236,78.702
			c109.056-67.635,163.614-136.69,163.614-207.11c0-45.563-14.175-81.807-42.455-108.733
			C1271.591,204.002,1236.024,190.54,1193.24,190.54z"/>
	</g>
</g>
</svg>
